<mxfile host="Electron" modified="2023-10-05T11:46:20.870Z" agent="Mozilla/5.0 (Windows NT 10.0; Win64; x64) AppleWebKit/537.36 (KHTML, like Gecko) draw.io/21.7.5 Chrome/114.0.5735.289 Electron/25.8.1 Safari/537.36" etag="9Q38ya_8GtpHotAKx7CN" version="21.7.5" type="device">
  <diagram name="Page-1" id="VQWqQ661ruOvcLlmvzig">
    <mxGraphModel dx="1036" dy="623" grid="1" gridSize="10" guides="1" tooltips="1" connect="1" arrows="1" fold="1" page="1" pageScale="1" pageWidth="1654" pageHeight="2336" math="0" shadow="0">
      <root>
        <mxCell id="0" />
        <mxCell id="1" parent="0" />
        <mxCell id="Fg0akMWVEdFNM0waDVca-40" value="" style="rounded=0;whiteSpace=wrap;html=1;" parent="1" vertex="1">
          <mxGeometry x="230" y="70" width="740" height="470" as="geometry" />
        </mxCell>
        <mxCell id="Fg0akMWVEdFNM0waDVca-5" value="VENDING MACHINE" style="text;html=1;align=center;verticalAlign=middle;resizable=0;points=[];autosize=1;strokeColor=none;fillColor=none;fontSize=27;fontStyle=1" parent="1" vertex="1">
          <mxGeometry x="468.75" y="95" width="280" height="50" as="geometry" />
        </mxCell>
        <mxCell id="Fg0akMWVEdFNM0waDVca-39" value="" style="group" parent="1" vertex="1" connectable="0">
          <mxGeometry x="280" y="170" width="635" height="340" as="geometry" />
        </mxCell>
        <mxCell id="Fg0akMWVEdFNM0waDVca-6" value="" style="rounded=0;whiteSpace=wrap;html=1;fontSize=16;" parent="Fg0akMWVEdFNM0waDVca-39" vertex="1">
          <mxGeometry width="250" height="340" as="geometry" />
        </mxCell>
        <mxCell id="Fg0akMWVEdFNM0waDVca-7" value="ACCEPTING SYSTEM" style="text;html=1;strokeColor=none;fillColor=none;align=center;verticalAlign=middle;whiteSpace=wrap;rounded=0;fontSize=16;" parent="Fg0akMWVEdFNM0waDVca-39" vertex="1">
          <mxGeometry x="37.5" y="20" width="175" height="30" as="geometry" />
        </mxCell>
        <mxCell id="Fg0akMWVEdFNM0waDVca-8" value="coin insertion checking" style="rounded=1;whiteSpace=wrap;html=1;fontSize=16;" parent="Fg0akMWVEdFNM0waDVca-39" vertex="1">
          <mxGeometry x="50" y="80" width="120" height="50" as="geometry" />
        </mxCell>
        <mxCell id="Fg0akMWVEdFNM0waDVca-9" value="calculate the sum" style="rounded=1;whiteSpace=wrap;html=1;fontSize=16;" parent="Fg0akMWVEdFNM0waDVca-39" vertex="1">
          <mxGeometry x="50" y="170" width="120" height="50" as="geometry" />
        </mxCell>
        <mxCell id="Fg0akMWVEdFNM0waDVca-18" value="" style="edgeStyle=orthogonalEdgeStyle;rounded=0;orthogonalLoop=1;jettySize=auto;html=1;fontSize=16;" parent="Fg0akMWVEdFNM0waDVca-39" source="Fg0akMWVEdFNM0waDVca-8" target="Fg0akMWVEdFNM0waDVca-9" edge="1">
          <mxGeometry relative="1" as="geometry" />
        </mxCell>
        <mxCell id="Fg0akMWVEdFNM0waDVca-19" value="Yes" style="edgeLabel;html=1;align=center;verticalAlign=middle;resizable=0;points=[];fontSize=14;" parent="Fg0akMWVEdFNM0waDVca-18" vertex="1" connectable="0">
          <mxGeometry x="-0.42" y="1" relative="1" as="geometry">
            <mxPoint x="14" y="-2" as="offset" />
          </mxGeometry>
        </mxCell>
        <mxCell id="Fg0akMWVEdFNM0waDVca-43" style="edgeStyle=orthogonalEdgeStyle;rounded=0;orthogonalLoop=1;jettySize=auto;html=1;exitX=0;exitY=0.5;exitDx=0;exitDy=0;entryX=0;entryY=0.5;entryDx=0;entryDy=0;" parent="Fg0akMWVEdFNM0waDVca-39" source="Fg0akMWVEdFNM0waDVca-10" target="Fg0akMWVEdFNM0waDVca-8" edge="1">
          <mxGeometry relative="1" as="geometry" />
        </mxCell>
        <mxCell id="Fg0akMWVEdFNM0waDVca-44" value="Total not attained" style="edgeLabel;html=1;align=center;verticalAlign=middle;resizable=0;points=[];" parent="Fg0akMWVEdFNM0waDVca-43" vertex="1" connectable="0">
          <mxGeometry x="0.1833" y="-1" relative="1" as="geometry">
            <mxPoint x="43" y="77" as="offset" />
          </mxGeometry>
        </mxCell>
        <mxCell id="Fg0akMWVEdFNM0waDVca-10" value="checking of the total amount required" style="rounded=1;whiteSpace=wrap;html=1;fontSize=16;" parent="Fg0akMWVEdFNM0waDVca-39" vertex="1">
          <mxGeometry x="30" y="260" width="160" height="50" as="geometry" />
        </mxCell>
        <mxCell id="Fg0akMWVEdFNM0waDVca-22" style="edgeStyle=orthogonalEdgeStyle;rounded=0;orthogonalLoop=1;jettySize=auto;html=1;exitX=0.5;exitY=1;exitDx=0;exitDy=0;fontSize=16;" parent="Fg0akMWVEdFNM0waDVca-39" source="Fg0akMWVEdFNM0waDVca-9" target="Fg0akMWVEdFNM0waDVca-10" edge="1">
          <mxGeometry relative="1" as="geometry" />
        </mxCell>
        <mxCell id="Fg0akMWVEdFNM0waDVca-23" value="" style="rounded=0;whiteSpace=wrap;html=1;fontSize=16;" parent="Fg0akMWVEdFNM0waDVca-39" vertex="1">
          <mxGeometry x="410" width="225" height="340" as="geometry" />
        </mxCell>
        <mxCell id="Fg0akMWVEdFNM0waDVca-35" style="edgeStyle=orthogonalEdgeStyle;rounded=0;orthogonalLoop=1;jettySize=auto;html=1;exitX=1;exitY=0.75;exitDx=0;exitDy=0;entryX=0;entryY=0.5;entryDx=0;entryDy=0;fontSize=16;" parent="Fg0akMWVEdFNM0waDVca-39" source="Fg0akMWVEdFNM0waDVca-10" target="Fg0akMWVEdFNM0waDVca-29" edge="1">
          <mxGeometry relative="1" as="geometry">
            <Array as="points">
              <mxPoint x="330" y="298" />
              <mxPoint x="330" y="195" />
            </Array>
          </mxGeometry>
        </mxCell>
        <mxCell id="Fg0akMWVEdFNM0waDVca-37" value="deposit" style="edgeLabel;html=1;align=center;verticalAlign=middle;resizable=0;points=[];fontSize=16;" parent="Fg0akMWVEdFNM0waDVca-35" vertex="1" connectable="0">
          <mxGeometry x="0.5725" y="-3" relative="1" as="geometry">
            <mxPoint x="7" y="-18" as="offset" />
          </mxGeometry>
        </mxCell>
        <mxCell id="Fg0akMWVEdFNM0waDVca-20" value="" style="curved=1;endArrow=classic;html=1;rounded=0;exitX=1;exitY=0.75;exitDx=0;exitDy=0;fontSize=16;" parent="Fg0akMWVEdFNM0waDVca-39" edge="1">
          <mxGeometry width="50" height="50" relative="1" as="geometry">
            <mxPoint x="172" y="117.5" as="sourcePoint" />
            <mxPoint x="150.8888888888889" y="80" as="targetPoint" />
            <Array as="points">
              <mxPoint x="212" y="90" />
              <mxPoint x="202" y="70" />
              <mxPoint x="182" y="60" />
            </Array>
          </mxGeometry>
        </mxCell>
        <mxCell id="Fg0akMWVEdFNM0waDVca-21" value="Not inserted" style="edgeLabel;html=1;align=center;verticalAlign=middle;resizable=0;points=[];fontSize=14;" parent="Fg0akMWVEdFNM0waDVca-20" vertex="1" connectable="0">
          <mxGeometry x="-0.7539" y="-1" relative="1" as="geometry">
            <mxPoint x="34" y="11" as="offset" />
          </mxGeometry>
        </mxCell>
        <mxCell id="Fg0akMWVEdFNM0waDVca-34" style="edgeStyle=orthogonalEdgeStyle;rounded=0;orthogonalLoop=1;jettySize=auto;html=1;exitX=1;exitY=0.25;exitDx=0;exitDy=0;entryX=0;entryY=0.5;entryDx=0;entryDy=0;fontSize=16;" parent="Fg0akMWVEdFNM0waDVca-39" source="Fg0akMWVEdFNM0waDVca-10" target="Fg0akMWVEdFNM0waDVca-27" edge="1">
          <mxGeometry relative="1" as="geometry">
            <Array as="points">
              <mxPoint x="290" y="273" />
              <mxPoint x="290" y="105" />
            </Array>
          </mxGeometry>
        </mxCell>
        <mxCell id="Fg0akMWVEdFNM0waDVca-36" value="exceed signal" style="edgeLabel;html=1;align=center;verticalAlign=middle;resizable=0;points=[];fontSize=16;" parent="Fg0akMWVEdFNM0waDVca-34" vertex="1" connectable="0">
          <mxGeometry x="0.6249" relative="1" as="geometry">
            <mxPoint x="-19" y="-15" as="offset" />
          </mxGeometry>
        </mxCell>
        <mxCell id="Fg0akMWVEdFNM0waDVca-24" value="DISPENDING SYSTEM" style="text;html=1;strokeColor=none;fillColor=none;align=center;verticalAlign=middle;whiteSpace=wrap;rounded=0;fontSize=16;" parent="Fg0akMWVEdFNM0waDVca-39" vertex="1">
          <mxGeometry x="437.5" y="20" width="175" height="30" as="geometry" />
        </mxCell>
        <mxCell id="Fg0akMWVEdFNM0waDVca-27" value="dispense the soda" style="rounded=1;whiteSpace=wrap;html=1;fontSize=16;" parent="Fg0akMWVEdFNM0waDVca-39" vertex="1">
          <mxGeometry x="450" y="80" width="150" height="50" as="geometry" />
        </mxCell>
        <mxCell id="Fg0akMWVEdFNM0waDVca-29" value="calculate the change" style="rounded=1;whiteSpace=wrap;html=1;fontSize=16;" parent="Fg0akMWVEdFNM0waDVca-39" vertex="1">
          <mxGeometry x="445" y="170" width="160" height="50" as="geometry" />
        </mxCell>
        <mxCell id="Fg0akMWVEdFNM0waDVca-25" value="" style="edgeStyle=orthogonalEdgeStyle;rounded=0;orthogonalLoop=1;jettySize=auto;html=1;fontSize=16;" parent="Fg0akMWVEdFNM0waDVca-39" source="Fg0akMWVEdFNM0waDVca-27" target="Fg0akMWVEdFNM0waDVca-29" edge="1">
          <mxGeometry relative="1" as="geometry" />
        </mxCell>
        <mxCell id="Fg0akMWVEdFNM0waDVca-30" value="refund the change (if&amp;nbsp;nessesarry)" style="rounded=1;whiteSpace=wrap;html=1;fontSize=16;" parent="Fg0akMWVEdFNM0waDVca-39" vertex="1">
          <mxGeometry x="445" y="260" width="160" height="50" as="geometry" />
        </mxCell>
        <mxCell id="Fg0akMWVEdFNM0waDVca-28" style="edgeStyle=orthogonalEdgeStyle;rounded=0;orthogonalLoop=1;jettySize=auto;html=1;exitX=0.5;exitY=1;exitDx=0;exitDy=0;fontSize=16;" parent="Fg0akMWVEdFNM0waDVca-39" source="Fg0akMWVEdFNM0waDVca-29" target="Fg0akMWVEdFNM0waDVca-30" edge="1">
          <mxGeometry relative="1" as="geometry" />
        </mxCell>
        <mxCell id="Fg0akMWVEdFNM0waDVca-38" style="edgeStyle=orthogonalEdgeStyle;rounded=0;orthogonalLoop=1;jettySize=auto;html=1;exitX=0.5;exitY=1;exitDx=0;exitDy=0;" parent="Fg0akMWVEdFNM0waDVca-39" source="Fg0akMWVEdFNM0waDVca-29" target="Fg0akMWVEdFNM0waDVca-29" edge="1">
          <mxGeometry relative="1" as="geometry" />
        </mxCell>
        <mxCell id="Fg0akMWVEdFNM0waDVca-41" value="" style="endArrow=classic;html=1;rounded=0;entryX=0;entryY=0.25;entryDx=0;entryDy=0;" parent="1" target="Fg0akMWVEdFNM0waDVca-40" edge="1">
          <mxGeometry width="50" height="50" relative="1" as="geometry">
            <mxPoint x="70" y="188" as="sourcePoint" />
            <mxPoint x="230.00000000000006" y="163.05999999999995" as="targetPoint" />
          </mxGeometry>
        </mxCell>
        <mxCell id="Fg0akMWVEdFNM0waDVca-45" value="Nickel" style="edgeLabel;html=1;align=center;verticalAlign=middle;resizable=0;points=[];fontSize=18;" parent="Fg0akMWVEdFNM0waDVca-41" vertex="1" connectable="0">
          <mxGeometry x="-0.5271" y="1" relative="1" as="geometry">
            <mxPoint x="-8" y="-27" as="offset" />
          </mxGeometry>
        </mxCell>
        <mxCell id="Fg0akMWVEdFNM0waDVca-46" value="" style="endArrow=classic;html=1;rounded=0;entryX=0.001;entryY=0.361;entryDx=0;entryDy=0;entryPerimeter=0;" parent="1" edge="1">
          <mxGeometry width="50" height="50" relative="1" as="geometry">
            <mxPoint x="70" y="255" as="sourcePoint" />
            <mxPoint x="230.75749999999994" y="254.66999999999996" as="targetPoint" />
          </mxGeometry>
        </mxCell>
        <mxCell id="Fg0akMWVEdFNM0waDVca-47" value="Dime" style="edgeLabel;html=1;align=center;verticalAlign=middle;resizable=0;points=[];fontSize=18;" parent="Fg0akMWVEdFNM0waDVca-46" vertex="1" connectable="0">
          <mxGeometry x="-0.5271" y="1" relative="1" as="geometry">
            <mxPoint x="-8" y="-22" as="offset" />
          </mxGeometry>
        </mxCell>
        <mxCell id="Fg0akMWVEdFNM0waDVca-48" value="" style="endArrow=classic;html=1;rounded=0;entryX=0;entryY=0.5;entryDx=0;entryDy=0;" parent="1" edge="1">
          <mxGeometry width="50" height="50" relative="1" as="geometry">
            <mxPoint x="70" y="320" as="sourcePoint" />
            <mxPoint x="230" y="320" as="targetPoint" />
          </mxGeometry>
        </mxCell>
        <mxCell id="Fg0akMWVEdFNM0waDVca-49" value="Quarter" style="edgeLabel;html=1;align=center;verticalAlign=middle;resizable=0;points=[];fontSize=18;" parent="Fg0akMWVEdFNM0waDVca-48" vertex="1" connectable="0">
          <mxGeometry x="-0.5271" y="1" relative="1" as="geometry">
            <mxPoint x="4" y="-22" as="offset" />
          </mxGeometry>
        </mxCell>
        <mxCell id="Fg0akMWVEdFNM0waDVca-50" value="" style="endArrow=classic;html=1;rounded=0;entryX=0;entryY=0.5;entryDx=0;entryDy=0;" parent="1" edge="1">
          <mxGeometry width="50" height="50" relative="1" as="geometry">
            <mxPoint x="70" y="500" as="sourcePoint" />
            <mxPoint x="230" y="500" as="targetPoint" />
          </mxGeometry>
        </mxCell>
        <mxCell id="Fg0akMWVEdFNM0waDVca-51" value="clk" style="edgeLabel;html=1;align=center;verticalAlign=middle;resizable=0;points=[];fontSize=18;" parent="Fg0akMWVEdFNM0waDVca-50" vertex="1" connectable="0">
          <mxGeometry x="-0.5271" y="1" relative="1" as="geometry">
            <mxPoint x="-18" y="-19" as="offset" />
          </mxGeometry>
        </mxCell>
        <mxCell id="Fg0akMWVEdFNM0waDVca-54" value="" style="endArrow=classic;html=1;rounded=0;entryX=0;entryY=0.25;entryDx=0;entryDy=0;" parent="1" edge="1">
          <mxGeometry width="50" height="50" relative="1" as="geometry">
            <mxPoint x="970" y="260" as="sourcePoint" />
            <mxPoint x="1130" y="260" as="targetPoint" />
          </mxGeometry>
        </mxCell>
        <mxCell id="Fg0akMWVEdFNM0waDVca-55" value="Soda" style="edgeLabel;html=1;align=center;verticalAlign=middle;resizable=0;points=[];fontSize=18;" parent="Fg0akMWVEdFNM0waDVca-54" vertex="1" connectable="0">
          <mxGeometry x="-0.5271" y="1" relative="1" as="geometry">
            <mxPoint x="83" y="-27" as="offset" />
          </mxGeometry>
        </mxCell>
        <mxCell id="Fg0akMWVEdFNM0waDVca-56" value="" style="endArrow=classic;html=1;rounded=0;entryX=0;entryY=0.25;entryDx=0;entryDy=0;" parent="1" edge="1">
          <mxGeometry width="50" height="50" relative="1" as="geometry">
            <mxPoint x="970" y="410" as="sourcePoint" />
            <mxPoint x="1130" y="410" as="targetPoint" />
          </mxGeometry>
        </mxCell>
        <mxCell id="Fg0akMWVEdFNM0waDVca-57" value="Change" style="edgeLabel;html=1;align=center;verticalAlign=middle;resizable=0;points=[];fontSize=18;" parent="Fg0akMWVEdFNM0waDVca-56" vertex="1" connectable="0">
          <mxGeometry x="-0.5271" y="1" relative="1" as="geometry">
            <mxPoint x="83" y="-27" as="offset" />
          </mxGeometry>
        </mxCell>
      </root>
    </mxGraphModel>
  </diagram>
</mxfile>
